<svg width="16" height="19" viewBox="0 0 16 19" fill="none" xmlns="http://www.w3.org/2000/svg">
<path fill-rule="evenodd" clip-rule="evenodd" d="M2.00243 7.35906C2.00243 4.65323 4.24374 2.45973 7.00852 2.45973C9.77331 2.45973 12.0146 4.65323 12.0146 7.35906C12.0146 10.0649 9.77331 12.2584 7.00852 12.2584C4.24374 12.2584 2.00243 10.0649 2.00243 7.35906ZM7.00852 0.5C3.13782 0.5 0 3.5709 0 7.35906C0 11.1472 3.13782 14.2181 7.00852 14.2181C8.23309 14.2181 9.3843 13.9108 10.386 13.3706L14.412 18.5L16 17.3062L11.9841 12.1896C13.2408 10.95 14.017 9.24324 14.017 7.35906C14.017 3.5709 10.8792 0.5 7.00852 0.5Z" fill="#0E0E0F"/>
</svg>
